<?xml version="1.0" encoding="UTF-8"?>
<svg xmlns="http://www.w3.org/2000/svg" version="1.1" viewBox="0 0 157.58 36">
  <!-- Generator: Adobe Illustrator 29.0.1, SVG Export Plug-In . SVG Version: 2.1.0 Build 192)  -->
  <defs>
    <style>
      .st0 {
        stroke: #dbdcdd;
      }

      .st0, .st1 {
        fill: none;
        stroke-miterlimit: 10;
      }

      .st2, .st3 {
        fill: #000;
      }

      .st1 {
        stroke: #000;
      }

      .st3, .st4 {
        font-family: MyriadPro-Regular, 'Myriad Pro';
        font-size: 12px;
      }

      .st4, .st5 {
        fill: #dbdcdd;
      }

      .st6 {
        display: none;
      }
    </style>
  </defs>
  <g id="Layer_2" class="st6">
    <line class="st0" x1="0" y1="899.64" x2="1106.04" y2="899.64"/>
    <line class="st0" x1="0" y1="1126.41" x2="1106.04" y2="1126.41"/>
    <line class="st0" x1="1049.34" y1="842.95" x2="1049.34" y2="1183.11"/>
    <line class="st0" x1="56.69" y1="842.95" x2="56.69" y2="1183.11"/>
    <rect class="st5" x="0" y="842.95" width="56.69" height="56.69"/>
    <g>
      <text class="st4" transform="translate(1057.09 1016.48)"><tspan x="0" y="0">X</tspan></text>
      <rect class="st5" x="1049.34" y="1126.41" width="56.69" height="56.69"/>
      <text class="st3" transform="translate(1057.09 1154.69)"><tspan x="0" y="0">1/4X</tspan></text>
    </g>
    <line class="st1" x1="0" y1="482.19" x2="1106.04" y2="482.19"/>
    <line class="st1" x1="0" y1="708.96" x2="1106.04" y2="708.96"/>
    <line class="st1" x1="1049.34" y1="425.5" x2="1049.34" y2="765.65"/>
    <line class="st1" x1="56.69" y1="425.5" x2="56.69" y2="765.65"/>
    <g>
      <text class="st3" transform="translate(1057.09 599.02)"><tspan x="0" y="0">X</tspan></text>
      <text class="st3" transform="translate(1057.09 737.24)"><tspan x="0" y="0">1/4X</tspan></text>
    </g>
    <line class="st0" x1="0" y1="56.89" x2="1106.04" y2="56.89"/>
    <line class="st0" x1="0" y1="283.66" x2="1106.04" y2="283.66"/>
    <line class="st0" x1="1049.34" y1=".2" x2="1049.34" y2="340.36"/>
    <line class="st0" x1="56.69" y1=".2" x2="56.69" y2="340.36"/>
    <rect class="st5" x="0" y=".2" width="56.69" height="56.69"/>
    <g>
      <text class="st4" transform="translate(1057.09 173.73)"><tspan x="0" y="0">X</tspan></text>
      <rect class="st5" x="1049.34" y="283.66" width="56.69" height="56.69"/>
      <text class="st3" transform="translate(1057.09 311.94)"><tspan x="0" y="0">1/4X</tspan></text>
    </g>
  </g>
  <g id="Layer_1">
    <g>
      <g>
        <path class="st2" d="M55.31,26.41c0,1.95-1.54,3.54-3.44,3.54s-3.44-1.58-3.44-3.54,1.54-3.54,3.44-3.54,3.44,1.59,3.44,3.54Z"/>
        <path class="st2" d="M151.23,7.45h6.35v24.68h-6.35s0-24.68,0-24.68Z"/>
        <polygon class="st2" points="92.76 12.77 102.13 12.77 102.13 32.14 108.49 32.14 108.49 12.77 117.86 12.77 117.86 7.45 92.76 7.45 92.76 12.77"/>
        <path class="st2" d="M85.93,17.12h-12.6c-1.16,0-2.11-.96-2.11-2.16s.94-2.17,2.11-2.17h0s16.37,0,16.37,0v-5.33h-17.42c-4.02,0-7.28,3.37-7.28,7.51s3.26,7.5,7.28,7.5h12.6c1.16,0,2.11.96,2.11,2.16s-.94,2.17-2.11,2.17h0s-14.47,0-14.47,0l2.96,5.33h12.57c4.02,0,7.28-3.37,7.28-7.51s-3.26-7.5-7.28-7.5Z"/>
        <polygon class="st2" points="41.62 32.13 51.87 13.83 62.13 32.13 69.28 32.13 55.45 7.45 48.3 7.45 34.47 32.13 41.62 32.13"/>
        <path class="st2" d="M147.88,32.13l-5.62-10.03c2.92-.98,5.03-3.8,5.03-7.13,0-4.14-3.26-7.5-7.28-7.5h0s-19.04,0-19.04,0v.33h0s0,24.36,0,24.36h6.36V12.78h11.65c1.16,0,2.11.97,2.11,2.17s-.94,2.17-2.11,2.17h-9.43v5.33h5.78l5.42,9.67h7.15Z"/>
      </g>
      <path class="st2" d="M3.19,12.84c-1.09,0-1.97-.93-1.97-2.08s.88-2.08,1.97-2.08,1.97.93,1.97,2.08-.89,2.08-1.97,2.08Z"/>
      <g>
        <polygon class="st2" points="13.76 8.36 0 0 0 4.32 10.2 10.51 0 16.71 0 20.24 0 20.24 0 21.21 13.17 21.21 13.17 20.24 1.3 20.24 13.76 12.68 13.76 8.36"/>
        <rect class="st2" y="24.12" width="13.17" height=".97"/>
        <rect class="st2" y="22.18" width="13.17" height=".97"/>
      </g>
      <path class="st2" d="M21.58,30.39c1.13,0,2.2-.17,3.2-.51s1.89-.82,2.63-1.43,1.33-1.36,1.77-2.26.66-1.87.66-2.92-.2-2.01-.6-2.9-.93-1.64-1.6-2.23-1.42-1.05-2.26-1.38-1.71-.49-2.6-.49c-.45,0-.83.01-1.14.03s-.65.06-1.04.12-.67.1-.85.12v-1.01c.86-.13,1.88-.19,3.08-.19,1.04,0,2.04.19,3,.57s1.81.9,2.54,1.57,1.32,1.51,1.76,2.51.66,2.09.66,3.27-.24,2.29-.73,3.31-1.14,1.88-1.97,2.57-1.81,1.24-2.93,1.64-2.31.59-3.57.59c-1.63,0-3.16-.27-4.57-.8s-2.59-1.28-3.55-2.24l.76-.59c.87.84,1.94,1.49,3.22,1.95,1.28.46,2.66.69,4.14.69ZM28.75,7.73v.99h-14.35v-.99h14.35ZM28.75,9.7v.99h-14.35v-.99h14.35ZM28.75,11.67v.99h-9.63v9.56h-.94v-9.56h-.94v9.56h-.94v-9.56h-.94v9.56h-.94v-10.54h14.35ZM21.58,28.42c1.81,0,3.32-.47,4.54-1.4s1.83-2.18,1.83-3.74c0-1.06-.26-1.98-.78-2.77s-1.19-1.36-2-1.74-1.71-.56-2.69-.56-1.88.08-2.74.23v-1c1.01-.12,1.94-.18,2.77-.18,1.16,0,2.23.26,3.2.77s1.75,1.23,2.32,2.15.86,1.95.86,3.09c0,1.21-.33,2.29-.99,3.24s-1.54,1.66-2.65,2.16-2.33.74-3.68.74-2.6-.2-3.75-.6-2.12-.97-2.9-1.7l.73-.62c.7.62,1.56,1.1,2.59,1.43s2.13.5,3.32.5ZM21.58,26.44c1.29,0,2.36-.28,3.21-.84s1.27-1.34,1.27-2.34-.37-1.81-1.1-2.36-1.63-.83-2.67-.83c-.8,0-1.65.1-2.54.31v-1.04c1.07-.14,1.93-.21,2.56-.21,1.31,0,2.42.37,3.34,1.1s1.37,1.74,1.37,3.02-.52,2.3-1.55,3.05-2.32,1.12-3.88,1.12c-2.22,0-3.94-.52-5.16-1.56l.75-.6c1.04.79,2.51,1.18,4.42,1.18ZM21.58,24.47c1.73,0,2.6-.4,2.6-1.2,0-.47-.2-.8-.6-1.01s-.91-.31-1.53-.31c-.96,0-1.73.12-2.29.36v-.99c.76-.19,1.53-.29,2.31-.29.56,0,1.06.07,1.5.21s.81.38,1.11.73.45.79.45,1.31c0,.73-.33,1.28-.99,1.64s-1.51.55-2.55.55c-1.62,0-2.85-.27-3.7-.82l.76-.6c.57.29,1.55.44,2.94.44Z"/>
      <g>
        <path class="st2" d="M31.14,8.88h.52v.82h-.52v2.79h-1.08v-2.79h-.53v-.82h.53v-1.2h1.08v1.2Z"/>
        <path class="st2" d="M32.13,7.68h1.08v1.53h.01c.18-.32.55-.45.93-.45.34,0,.75.12.98.4.31.36.34.68.34,1.32v2.01h-1.08v-1.96c0-.18,0-.75-.58-.75s-.6.54-.6.71v2h-1.08v-4.81Z"/>
      </g>
      <g>
        <path class="st2" d="M2.04,26.9h-.57v1.79h-.64v-1.79H.25v-.59h1.78v.59Z"/>
        <path class="st2" d="M2.93,26.9v.33h.76v.53h-.76v.34h.92v.59h-1.55v-2.38h1.55v.59h-.92Z"/>
        <path class="st2" d="M4.1,27.5c0-.7.57-1.24,1.32-1.24.31,0,.64.14.88.36l-.36.47c-.15-.13-.34-.22-.52-.22-.37,0-.67.28-.67.64s.32.64.66.64c.2,0,.38-.09.53-.23l.36.48c-.23.21-.53.35-.9.35-.67,0-1.3-.5-1.3-1.24Z"/>
        <path class="st2" d="M8.55,26.31v2.38h-.63v-.89h-.71v.89h-.63v-2.38h.63v.89h.71v-.89h.63Z"/>
        <path class="st2" d="M1.03,30.52v.38h.76v.53h-.76v.88H.4v-2.39h1.55v.59h-.92Z"/>
        <path class="st2" d="M2.06,31.12c0-.71.57-1.25,1.31-1.25s1.31.54,1.31,1.25-.57,1.25-1.31,1.25-1.31-.54-1.31-1.25ZM4.05,31.12c0-.37-.29-.65-.67-.65s-.67.28-.67.65.29.65.67.65.67-.28.67-.65Z"/>
        <path class="st2" d="M6.27,32.31l-.64-1.03v1.03h-.63v-2.38s.9,0,.9,0c.52,0,.88.35.88.77,0,.3-.18.54-.41.65l.64.95h-.74ZM5.63,30.98h.26c.13,0,.26-.09.26-.24s-.12-.24-.26-.24h-.26v.48Z"/>
        <path class="st2" d="M1.03,34.14v.33h.76v.53h-.76v.34h.92v.59H.4v-2.38h1.55v.59h-.92Z"/>
        <path class="st2" d="M4.61,33.55l-1.1,2.4h-.29l-1.1-2.4h.69l.55,1.29.55-1.29h.7Z"/>
        <path class="st2" d="M5.47,34.14v.33h.76v.53h-.76v.34h.92v.59h-1.55v-2.38h1.55v.59h-.92Z"/>
        <path class="st2" d="M8.02,35.93l-.64-1.03v1.03h-.63v-2.38s.9,0,.9,0c.52,0,.88.35.88.77,0,.3-.18.54-.41.65l.64.95h-.74ZM7.38,34.6h.26c.13,0,.26-.09.26-.24s-.12-.24-.26-.24h-.26v.48Z"/>
        <path class="st2" d="M9.29,34.9l-.74-1.35h.72l.33.69.33-.69h.72l-.74,1.35v1.03h-.63v-1.03Z"/>
        <path class="st2" d="M10.52,34.75c0-.71.57-1.25,1.31-1.25s1.31.54,1.31,1.25-.57,1.25-1.31,1.25-1.31-.54-1.31-1.25ZM12.5,34.74c0-.37-.29-.65-.67-.65s-.67.28-.67.65.29.65.67.65.67-.28.67-.65Z"/>
        <path class="st2" d="M15.52,33.55v2.4h-.2l-1.23-1.18v1.16h-.63v-2.4h.2l1.22,1.18v-1.16h.64Z"/>
        <path class="st2" d="M16.56,34.14v.33h.76v.53h-.76v.34h.92v.59h-1.55v-2.38h1.55v.59h-.92Z"/>
      </g>
      <path class="st2" d="M19.24,36c-.68,0-1.23-.58-1.23-1.29s.55-1.29,1.23-1.29,1.23.58,1.23,1.29-.55,1.29-1.23,1.29Z"/>
    </g>
  </g>
</svg>